<?xml version="1.0" encoding="UTF-8"?>
<svg width="48px" height="48px" viewBox="0 0 48 48" version="1.1" xmlns="http://www.w3.org/2000/svg">
    <title>Instant Settlements Icon</title>
    <g stroke="none" stroke-width="1" fill="none" fill-rule="evenodd">
        <circle fill="#1A1A1A" cx="24" cy="24" r="24"></circle>
        <path d="M24,12 C29.5228,12 34,16.4772 34,22 C34,27.5228 29.5228,32 24,32 C18.4772,32 14,27.5228 14,22 C14,16.4772 18.4772,12 24,12 Z M24,14 C19.5817,14 16,17.5817 16,22 C16,26.4183 19.5817,30 24,30 C28.4183,30 32,26.4183 32,22 C32,17.5817 28.4183,14 24,14 Z M24,16 C24.5523,16 25,16.4477 25,17 L25,21.5858 L28.2929,24.8787 C28.6834,25.2692 28.6834,25.9024 28.2929,26.2929 C27.9024,26.6834 27.2692,26.6834 26.8787,26.2929 L23.2929,22.7071 C23.1054,22.5196 23,22.2652 23,22 L23,17 C23,16.4477 23.4477,16 24,16 Z" fill="#D4AF37" fill-rule="nonzero"></path>
        <path d="M24,34 L28,38 L20,38 L24,34 Z" fill="#D4AF37"></path>
    </g>
</svg>
