<svg width="180" height="40" viewBox="0 0 180 40" fill="none" xmlns="http://www.w3.org/2000/svg">
  <path d="M20 0C8.954 0 0 8.954 0 20C0 31.046 8.954 40 20 40C31.046 40 40 31.046 40 20C40 8.954 31.046 0 20 0ZM20 36C11.163 36 4 28.837 4 20C4 11.163 11.163 4 20 4C28.837 4 36 11.163 36 20C36 28.837 28.837 36 20 36Z" fill="#D4AF37"/>
  <path d="M20 8C13.373 8 8 13.373 8 20C8 26.627 13.373 32 20 32C26.627 32 32 26.627 32 20C32 13.373 26.627 8 20 8ZM20 28C15.582 28 12 24.418 12 20C12 15.582 15.582 12 20 12C24.418 12 28 15.582 28 20C28 24.418 24.418 28 20 28Z" fill="#D4AF37"/>
  <path d="M20 16C17.791 16 16 17.791 16 20C16 22.209 17.791 24 20 24C22.209 24 24 22.209 24 20C24 17.791 22.209 16 20 16Z" fill="#D4AF37"/>
  <path d="M50 10H54V30H50V10Z" fill="#FFFFFF"/>
  <path d="M60 10H64L74 22V10H78V30H74L64 18V30H60V10Z" fill="#FFFFFF"/>
  <path d="M90 10H94L102 30H98L96 25H88L86 30H82L90 10ZM94 21L92 16L90 21H94Z" fill="#FFFFFF"/>
  <path d="M106 10H110V26H120V30H106V10Z" fill="#FFFFFF"/>
  <path d="M124 10H128V26H138V30H124V10Z" fill="#FFFFFF"/>
  <path d="M142 10H146L154 20V10H158V30H154V24L148 16L142 24V30H138V10H142Z" fill="#FFFFFF"/>
  <path d="M164 10H180V14H174V30H170V14H164V10Z" fill="#FFFFFF"/>
  <path d="M124 10H138V14H124V10Z" fill="#D4AF37"/>
  <path d="M106 10H120V14H106V10Z" fill="#D4AF37"/>
  <path d="M164 10H180V14H164V10Z" fill="#D4AF37"/>
</svg>
