<?xml version="1.0" encoding="UTF-8"?>
<svg width="48px" height="48px" viewBox="0 0 48 48" version="1.1" xmlns="http://www.w3.org/2000/svg">
    <title>Concierge Support Icon</title>
    <g stroke="none" stroke-width="1" fill="none" fill-rule="evenodd">
        <circle fill="#1A1A1A" cx="24" cy="24" r="24"></circle>
        <path d="M24,12 C27.3137,12 30,14.6863 30,18 L30,20 L32,20 C33.1046,20 34,20.8954 34,22 L34,30 C34,31.1046 33.1046,32 32,32 L30,32 L30,34 C30,35.1046 29.1046,36 28,36 L20,36 C18.8954,36 18,35.1046 18,34 L18,32 L16,32 C14.8954,32 14,31.1046 14,30 L14,22 C14,20.8954 14.8954,20 16,20 L18,20 L18,18 C18,14.6863 20.6863,12 24,12 Z M28,32 L20,32 L20,34 L28,34 L28,32 Z M32,22 L16,22 L16,30 L32,30 L32,22 Z M24,14 C21.7909,14 20,15.7909 20,18 L20,20 L28,20 L28,18 C28,15.7909 26.2091,14 24,14 Z M22,24 C22.5523,24 23,24.4477 23,25 C23,25.5523 22.5523,26 22,26 C21.4477,26 21,25.5523 21,25 C21,24.4477 21.4477,24 22,24 Z M26,24 C26.5523,24 27,24.4477 27,25 C27,25.5523 26.5523,26 26,26 C25.4477,26 25,25.5523 25,25 C25,24.4477 25.4477,24 26,24 Z" fill="#D4AF37" fill-rule="nonzero"></path>
    </g>
</svg>
